<?xml version="1.0" standalone="no"?>
<!DOCTYPE svg PUBLIC "-//W3C//DTD SVG 20010904//EN"
 "http://www.w3.org/TR/2001/REC-SVG-20010904/DTD/svg10.dtd">
<svg version="1.0" xmlns="http://www.w3.org/2000/svg"
 width="225.000000pt" height="225.000000pt" viewBox="0 0 225.000000 225.000000"
 preserveAspectRatio="xMidYMid meet">

<g transform="translate(0.000000,225.000000) scale(0.100000,-0.100000)"
fill="#000000" stroke="none">
<path d="M827 1635 c-22 -7 -50 -24 -64 -37 -48 -44 -53 -71 -53 -296 0 -186
2 -212 20 -246 38 -75 87 -94 248 -95 l122 -1 0 80 0 80 -84 0 c-125 0 -130 6
-134 160 -5 183 7 200 144 200 l74 0 0 85 0 85 -117 0 c-74 -1 -133 -6 -156
-15z"/>
<path d="M1150 1561 l0 -81 90 0 c134 0 144 -14 138 -203 -4 -153 -7 -157
-135 -157 l-93 0 0 -80 0 -80 113 0 c131 0 175 10 221 50 55 48 57 64 54 308
-3 205 -4 223 -24 248 -47 64 -63 69 -220 72 l-144 3 0 -80z"/>
<path d="M432 861 c-9 -5 -12 -26 -10 -67 l3 -59 73 -3 c43 -2 72 1 72 7 0 6
-28 11 -62 13 l-63 3 0 40 0 40 63 3 c46 2 62 7 62 17 0 12 -14 15 -62 15 -35
0 -69 -4 -76 -9z"/>
<path d="M602 803 l3 -68 68 -3 c42 -2 67 1 67 8 0 6 -23 10 -55 10 l-55 0 0
60 c0 47 -3 60 -15 60 -13 0 -15 -12 -13 -67z"/>
<path d="M760 800 c0 -56 3 -70 15 -70 12 0 15 14 15 70 0 56 -3 70 -15 70
-12 0 -15 -14 -15 -70z"/>
<path d="M830 800 c0 -40 4 -70 10 -70 6 0 10 20 10 45 0 25 3 45 6 45 3 0 31
-22 63 -50 32 -27 61 -50 64 -50 4 0 7 34 7 75 0 43 -4 75 -10 75 -5 0 -10
-22 -10 -50 0 -27 -4 -50 -8 -50 -4 0 -30 23 -57 50 -27 28 -55 50 -62 50 -9
0 -13 -20 -13 -70z"/>
<path d="M1030 800 c0 -56 3 -70 15 -70 12 0 15 14 15 70 0 56 -3 70 -15 70
-12 0 -15 -14 -15 -70z"/>
<path d="M1120 863 c-22 -9 -30 -24 -30 -61 0 -61 13 -72 85 -72 37 0 65 4 65
10 0 6 -27 10 -60 10 l-60 0 0 44 c0 50 8 56 76 56 24 0 44 5 44 10 0 10 -94
13 -120 3z"/>
<path d="M1296 857 c-13 -10 -17 -24 -14 -67 l3 -55 70 0 70 0 3 58 c3 54 1
58 -23 67 -36 14 -88 12 -109 -3z m102 -16 c8 -5 12 -23 10 -47 l-3 -39 -50 0
-50 0 -3 39 c-4 44 7 56 53 56 17 0 36 -4 43 -9z"/>
<path d="M1470 800 c0 -56 3 -70 15 -70 9 0 15 9 15 25 l0 25 40 -25 c22 -14
50 -25 62 -24 20 0 19 2 -9 16 -18 9 -33 20 -33 24 0 4 15 9 33 11 29 3 32 6
35 39 3 34 1 37 -29 43 -17 3 -53 6 -80 6 l-49 0 0 -70z m124 44 c21 -8 21
-40 0 -48 -9 -3 -33 -6 -55 -6 -37 0 -39 2 -39 30 0 28 2 30 39 30 22 0 46 -3
55 -6z"/>
<path d="M1670 800 c0 -56 3 -70 15 -70 8 0 15 9 15 20 0 16 8 19 63 22 l62 3
3 41 c4 48 -6 54 -100 54 l-58 0 0 -70z m128 41 c8 -5 12 -17 10 -27 -2 -15
-14 -20 -56 -22 l-52 -3 0 30 c0 30 2 31 43 31 23 0 48 -4 55 -9z"/>
</g>
</svg>
